<?xml version="1.0" ?><!DOCTYPE svg  PUBLIC '-//W3C//DTD SVG 1.1//EN'  'http://www.w3.org/Graphics/SVG/1.1/DTD/svg11.dtd'><svg enable-background="new 0 0 512 512" height="512px" id="Layer_1" version="1.1" viewBox="0 0 512 512" width="512px" xml:space="preserve" xmlns="http://www.w3.org/2000/svg" xmlns:xlink="http://www.w3.org/1999/xlink"><path d="M67.955,302.302v77.867l169.917,98.084V255.599l-90.91,95.501L67.955,302.302z M221.305,242.339L79.864,160.694  L3.119,237.429l140.358,86.673L221.305,242.339z M291.063,242.611l77.58,81.49l140.354-86.673l-76.473-76.488L291.063,242.611z   M273.541,254.836v223.416l169.92-98.083v-77.43l-78.32,48.361L273.541,254.836z M512,109.443L373.399,33.747l-94.911,26.254  l153.427,86.88L512,109.443z M233.498,60.001l-94.91-26.254L0.001,109.443l80.05,37.438L233.498,60.001z"/></svg>